<?xml version="1.0" encoding="UTF-8" standalone="no"?>
<svg
   version="1.1"
   width="105.756"
   height="112.505"
   xmlns="http://www.w3.org/2000/svg"
   xmlns:svg="http://www.w3.org/2000/svg">
  <path
     d="m 50.958,112.396 c -0.744,-0.05 -1.38,-0.1 -1.415,-0.12 -0.03,-0.02 -0.39,-0.06 -0.791,-0.08 -0.4,-0.02 -0.89,-0.09 -1.088,-0.153 -0.197,-0.06 -0.564,-0.111 -0.814,-0.112 -0.251,0 -0.728,-0.07 -1.062,-0.161 -0.334,-0.09 -0.845,-0.188 -1.137,-0.226 -0.292,-0.04 -0.89,-0.135 -1.328,-0.218 -0.437,-0.08 -1.035,-0.192 -1.327,-0.241 -0.292,-0.05 -0.735,-0.157 -0.985,-0.239 -0.25,-0.08 -0.882,-0.232 -1.403,-0.334 -1,-0.195 -2.553,-0.591 -2.783,-0.71 -0.07,-0.04 -0.265,-0.09 -0.422,-0.114 -0.511,-0.08 -3.763,-1.109 -4.452,-1.409 -0.23,-0.1 -0.74,-0.303 -1.134,-0.452 -1.356,-0.512 -3.853,-1.706 -5.157,-2.465 -0.354,-0.206 -0.866,-0.49 -1.138,-0.63 -0.619,-0.319 -1.97,-1.197 -2.115,-1.375 -0.06,-0.07 -0.282,-0.221 -0.493,-0.327 -0.211,-0.107 -0.605,-0.372 -0.876,-0.591 -0.27,-0.218 -0.8,-0.606 -1.178,-0.863 -0.377,-0.257 -0.977,-0.743 -1.333,-1.081 -0.357,-0.337 -0.753,-0.672 -0.88,-0.743 C 17.303,99.559 14.784,97.17 14.55,96.814 14.439,96.645 14,96.147 13.575,95.708 12.487,94.585 11.848,93.878 11.684,93.616 11.604,93.492 11.418,93.237 11.265,93.049 11.113,92.861 10.868,92.518 10.721,92.286 10.574,92.054 10.394,91.815 10.32,91.754 10.179,91.638 9.365,90.435 8.939,89.714 8.801,89.48 8.626,89.221 8.55,89.137 8.229,88.784 6.43,85.743 6.43,85.554 6.43,85.514 6.227,85.153 5.978,84.747 5.73,84.342 5.352,83.575 5.14,83.042 4.927,82.51 4.519,81.579 4.234,80.974 3.949,80.368 3.665,79.685 3.603,79.456 3.543,79.226 3.402,78.799 3.294,78.507 3.008,77.741 2.093,74.541 1.904,73.649 1.814,73.232 1.629,72.429 1.489,71.866 1.34,71.27 1.182,70.349 1.111,69.665 1.041,69.018 0.923,68.292 0.844,68.052 0.764,67.803 0.699,67.395 0.698,67.104 0.697,66.822 0.638,66.455 0.576,66.288 0.496,66.093 0.422,65.47 0.362,64.543 0.312,63.75 0.231,62.794 0.187,62.419 c -0.293,-2.482 -0.231,-9.888 0.105,-12.63 0.04,-0.355 0.08,-0.747 0.08,-0.873 0.01,-0.631 0.219,-2.341 0.296,-2.434 0.05,-0.06 0.07,-0.197 0.05,-0.308 -0.04,-0.224 0.277,-2.638 0.404,-3.059 0.05,-0.146 0.116,-0.487 0.159,-0.759 0.331,-2.092 1.878,-7.531 2.631,-9.249 0.1,-0.229 0.323,-0.788 0.494,-1.242 0.734,-1.941 1.961,-4.413 3.353,-6.754 0.198,-0.333 0.42,-0.725 0.493,-0.871 0.07,-0.146 0.278,-0.453 0.456,-0.682 0.178,-0.229 0.393,-0.553 0.478,-0.72 0.08,-0.166 0.361,-0.548 0.612,-0.847 0.252,-0.3 0.481,-0.615 0.508,-0.701 0.03,-0.09 0.08,-0.156 0.109,-0.156 0.03,0 0.161,-0.162 0.285,-0.36 0.262,-0.418 1.682,-2.064 1.781,-2.064 0.04,0 0.156,-0.179 0.265,-0.397 0.225,-0.453 3.837,-4.092 5.311,-5.351 0.457,-0.391 0.913,-0.807 1.014,-0.926 0.1,-0.119 0.231,-0.216 0.29,-0.215 0.06,0 0.254,-0.131 0.43,-0.291 0.177,-0.16 0.544,-0.438 0.815,-0.618 0.272,-0.18 0.648,-0.453 0.836,-0.608 0.363,-0.298 1.512,-1.093 2.128,-1.472 0.203,-0.124 0.527,-0.329 0.72,-0.453 0.193,-0.125 0.529,-0.341 0.745,-0.48 0.217,-0.14 0.719,-0.425 1.116,-0.636 0.397,-0.21 0.924,-0.502 1.171,-0.648 2.31,-1.369 7.546,-3.578 10.217,-4.31 0.272,-0.07 0.733,-0.207 1.025,-0.295 0.825,-0.249 1.955,-0.502 4.06,-0.91 2.897,-0.561 3.774,-0.7 4.401,-0.696 0.313,0 0.842,-0.04 1.176,-0.1 3.052,-0.504 11.555,-0.357 15.209,0.262 0.355,0.06 0.969,0.142 1.365,0.183 0.397,0.04 1.199,0.175 1.783,0.299 0.583,0.125 1.249,0.251 1.478,0.279 0.23,0.03 0.827,0.167 1.327,0.307 0.501,0.14 1.092,0.293 1.315,0.34 0.349,0.07 2.264,0.697 3.878,1.264 0.758,0.266 2.94,1.158 3.449,1.41 0.25,0.123 0.694,0.336 0.985,0.471 0.646,0.301 2.883,1.483 3.145,1.663 0.104,0.07 0.285,0.153 0.402,0.181 0.117,0.03 0.352,0.154 0.523,0.278 0.171,0.124 0.351,0.226 0.402,0.226 0.05,0 0.223,0.1 0.386,0.214 0.162,0.118 0.466,0.314 0.674,0.435 0.209,0.12 0.618,0.394 0.909,0.609 0.292,0.214 0.722,0.502 0.956,0.64 0.234,0.139 0.752,0.538 1.152,0.888 0.4,0.35 0.762,0.637 0.804,0.637 0.189,0 2.66,2.18 2.845,2.508 0.04,0.08 0.246,0.264 0.454,0.421 0.669,0.504 3.618,3.534 4.067,4.178 0.233,0.334 0.631,0.83 0.885,1.101 0.255,0.272 0.446,0.537 0.426,0.589 -0.02,0.05 0.116,0.249 0.302,0.436 0.187,0.188 0.474,0.555 0.639,0.817 0.164,0.261 0.402,0.629 0.528,0.817 0.807,1.207 1.052,1.599 1.1,1.758 0.03,0.1 0.149,0.282 0.267,0.407 0.243,0.26 0.664,0.965 1.201,2.012 0.204,0.397 0.497,0.961 0.652,1.253 0.155,0.293 0.383,0.737 0.508,0.987 0.125,0.251 0.291,0.538 0.368,0.637 0.08,0.1 0.141,0.25 0.14,0.335 0,0.15 0.461,1.252 0.762,1.821 0.08,0.157 0.131,0.318 0.107,0.358 -0.03,0.04 0,0.15 0.06,0.245 0.775,1.237 2.082,7.552 2.078,10.038 0,1.655 0.669,1.48 -5.676,1.471 -3.033,0 -8.553,0 -12.267,0.03 -3.713,0.02 -6.845,0.03 -6.96,0.03 -0.114,0 -0.302,0 -0.417,0 -0.115,0 -1.506,0 -3.091,0 -3.777,0 -3.902,-0.03 -4.023,-0.87 -0.03,-0.188 -0.1,-0.507 -0.152,-0.709 -0.06,-0.202 -0.138,-0.561 -0.18,-0.798 -0.808,-4.506 -3.723,-9.185 -6.814,-10.937 -0.518,-0.293 -1.027,-0.6 -1.131,-0.68 -0.104,-0.08 -0.275,-0.172 -0.379,-0.203 -0.104,-0.03 -0.299,-0.12 -0.434,-0.198 -0.134,-0.08 -0.373,-0.164 -0.53,-0.192 -0.158,-0.03 -0.491,-0.139 -0.742,-0.244 -1.78,-0.751 -7.528,-1.292 -9.253,-0.872 -0.166,0.04 -0.593,0.11 -0.948,0.154 -0.881,0.109 -2.667,0.507 -3.246,0.723 -0.262,0.1 -0.535,0.179 -0.607,0.179 -0.07,0 -0.333,0.102 -0.579,0.227 -0.246,0.124 -0.556,0.225 -0.69,0.225 -0.145,0 -0.297,0.06 -0.377,0.147 -0.07,0.08 -0.396,0.256 -0.715,0.388 -1.087,0.449 -2.564,1.408 -3.558,2.308 -0.962,0.873 -3.211,3.378 -3.478,3.875 -0.128,0.239 -0.362,0.603 -0.521,0.81 -0.158,0.206 -0.411,0.632 -0.561,0.947 -0.556,1.164 -0.776,1.646 -1.002,2.201 -0.127,0.313 -0.356,0.875 -0.509,1.251 -0.428,1.049 -1.136,3.766 -1.364,5.231 -0.372,2.392 -0.522,3.615 -0.515,4.198 0,0.319 -0.03,0.887 -0.09,1.263 -0.124,0.908 -0.135,9.458 -0.01,10.279 0.05,0.313 0.116,0.842 0.154,1.176 0.09,0.823 0.34,2.474 0.519,3.495 0.301,1.709 2.055,7.019 2.423,7.332 0.08,0.07 0.147,0.218 0.147,0.33 0,0.112 0.06,0.295 0.138,0.406 0.08,0.111 0.302,0.509 0.502,0.885 0.2,0.376 0.49,0.854 0.646,1.063 0.155,0.209 0.323,0.458 0.372,0.553 0.366,0.712 2.415,2.934 3.412,3.699 0.395,0.303 0.975,0.767 1.287,1.03 0.313,0.263 0.688,0.528 0.834,0.589 0.146,0.06 0.317,0.157 0.381,0.214 0.108,0.1 0.919,0.567 1.513,0.879 0.574,0.302 1.649,0.749 2.009,0.837 0.208,0.05 0.481,0.145 0.606,0.209 0.125,0.06 0.364,0.141 0.531,0.171 0.167,0.03 0.798,0.163 1.403,0.295 2.304,0.501 6.395,0.497 9.005,-0.01 2.777,-0.54 6.072,-2.182 7.735,-3.856 1.026,-1.033 2.079,-2.507 2.572,-3.602 0.121,-0.27 0.299,-0.644 0.395,-0.832 0.765,-1.501 1.631,-5.129 1.639,-6.867 0,-0.564 -0.371,-0.528 5.171,-0.496 2.726,0.02 6.697,0.07 8.825,0.113 2.127,0.05 6.189,0.126 9.026,0.175 9.864,0.172 9.655,0.156 9.545,0.727 -0.03,0.17 -0.05,0.564 -0.04,0.877 0,0.313 -0.02,0.774 -0.06,1.024 -0.1,0.556 -0.274,1.761 -0.378,2.579 -0.196,1.556 -1.192,5.382 -1.775,6.823 -0.08,0.209 -0.239,0.635 -0.344,0.948 -0.217,0.647 -0.832,2.086 -0.987,2.31 -0.06,0.08 -0.104,0.222 -0.104,0.31 0,0.09 -0.1,0.297 -0.219,0.462 -0.12,0.166 -0.24,0.367 -0.266,0.448 -0.128,0.398 -0.572,1.321 -0.782,1.624 -0.13,0.187 -0.483,0.832 -0.786,1.433 -0.336,0.669 -0.765,1.376 -1.104,1.822 -0.305,0.401 -0.684,0.932 -0.841,1.181 -0.158,0.248 -0.516,0.723 -0.795,1.057 -0.279,0.333 -0.759,0.946 -1.067,1.363 -0.839,1.137 -3.918,4.339 -5.276,5.488 -0.63,0.533 -1.265,1.096 -1.412,1.25 -0.146,0.155 -0.505,0.445 -0.797,0.645 -0.293,0.2 -0.737,0.539 -0.988,0.754 -0.251,0.216 -0.61,0.471 -0.798,0.567 -0.187,0.1 -0.426,0.266 -0.529,0.377 -0.104,0.11 -0.497,0.375 -0.874,0.588 -0.377,0.214 -0.945,0.561 -1.263,0.772 -0.318,0.21 -0.916,0.577 -1.329,0.816 -0.413,0.238 -0.837,0.482 -0.941,0.542 -0.21,0.121 -1.041,0.539 -2.316,1.166 -1.02,0.502 -2.954,1.3 -3.265,1.348 -0.125,0.02 -0.415,0.13 -0.645,0.246 -0.478,0.24 -3.472,1.165 -4.402,1.36 -0.146,0.03 -0.351,0.09 -0.456,0.138 -0.183,0.08 -2.527,0.574 -3.301,0.697 -0.209,0.03 -0.567,0.09 -0.797,0.137 -1.487,0.271 -4.617,0.69 -5.07,0.678 -0.195,0 -0.577,0.02 -0.848,0.06 -0.505,0.08 -4.712,0.256 -5.259,0.224 -2.213,0.07 -3.085,0.02 -4.628,-0.07 z M 14.376,95.835 c 0,-0.01 -0.09,-0.108 -0.209,-0.209 -0.208,-0.184 -0.208,-0.184 -0.02,0.03 0.171,0.195 0.232,0.243 0.233,0.184 z m -1.06,-1.068 c 0,-0.02 -0.06,-0.08 -0.133,-0.133 -0.12,-0.1 -0.123,-0.09 -0.03,0.03 0.1,0.126 0.162,0.166 0.162,0.104 z m -2.422,-3.115 c 0,-0.01 -0.06,-0.07 -0.132,-0.133 -0.12,-0.09 -0.123,-0.09 -0.03,0.03 0.1,0.126 0.161,0.167 0.161,0.104 z"
     style="fill:#596fc5;fill-opacity:1" />
</svg>
