<?xml version="1.0" encoding="UTF-8" standalone="no"?>
<svg
   xmlns:dc="http://purl.org/dc/elements/1.1/"
   xmlns:cc="http://creativecommons.org/ns#"
   xmlns:rdf="http://www.w3.org/1999/02/22-rdf-syntax-ns#"
   xmlns:svg="http://www.w3.org/2000/svg"
   xmlns="http://www.w3.org/2000/svg"
   width="138cm"
   height="22cm"
   viewBox="0 0 138 22"
   version="1.1"
   id="svg8">
  <title
     id="title">usbtemp</title>
  <metadata
     id="metadata">
    <rdf:RDF>
      <cc:Work
         rdf:about="">
        <dc:format>image/svg+xml</dc:format>
        <dc:type
           rdf:resource="http://purl.org/dc/dcmitype/StillImage" />
        <dc:title>usbtemp</dc:title>
      </cc:Work>
    </rdf:RDF>
  </metadata>
  <defs
     id="defs" />
  <path
     id="u"
     d="M 0,2 V 20 H 19 V 2 H 15 V 16 H 4 V 2 z" />
  <path
     id="s"
     d="M 20,2 H 39 V 6 H 24 V 9 H 39 V 20 H 20 V 16 H 35 V 13 H 20 z" />
  <path
     d="M 59,20 H 40 V 0 h 4 V 16 H 55 V 6 H 46 V 2 h 13 z"
     id="b" />
  <path
     d="m 60,2 h 19 v 4 h -7.5 v 14 h -4 V 6 H 60 z"
     id="t" />
  <path
     d="M 80,20 V 2 H 99 V 6 H 84 v 3 h 15 v 4 H 84 v 3 h 15 v 4 z"
     id="e" />
  <path
     id="m"
     d="m 100,2 h 18 v 18 h -4 V 6 h -3 v 14 h -4 V 6 h -3 v 14 h -4 z" />
  <path
     id="p"
     d="m 138,2 h -19 v 20 h 4 V 6 h 11 v 10 h -9 v 4 h 13 z" />
</svg>
