<?xml version="1.0" encoding="UTF-8" standalone="no"?>
<svg
   xmlns="http://www.w3.org/2000/svg"
   version="1.1"
   viewBox="0 0 149 22"
   height="22cm"
   width="149cm">
  <path
     d="M 2,2 v 18 h 19 v -18 h -4 v 14 h -11 v -14 z"
     id="u" />
  <path
     d="M 23,2 h 19 v 4 h -15 v 3 h 15 v 11 h -19 v -4 h 15 v -3 h -15 z"
     id="s" />
  <path
     d="m 44,0 v 20 h 19 v -18 h -13 v 4 h 9 v 10 h -11 v -16 z"
     id="b" />
  <path
     d="m 65,2 v 4 h 7.5 v 14 h 4 v -14 h 7.5 v -4 z"
     id="t" />
  <path
     d="M 86,2 v 18 h 19 v -4 h -15 v -3 h 15 v -4 h -15 v -3 h 15 v -4 z"
     id="e" />
  <path
     d="m 107,2 v 18 h 4 v -14 h 3.5 v 14 h 4 v -14 h 3.5 v 14 h 4 v -18 z"
     id="m" />
  <path
     d="m 128,2 v 20 h 4 v -16 h 11 v 10 h -9 v 4 h 13 v -18 z"
     id="p" />
</svg>
