<?xml version="1.0" encoding="UTF-8"?><svg version="1.1" viewBox="0 0 149 22" xmlns="http://www.w3.org/2000/svg"><path id="u" d="m2 2v18h19v-18h-4v14h-11v-14z"/><path id="s" d="m23 2h19v4h-15v3h15v11h-19v-4h15v-3h-15z"/><path id="b" d="m44 0v20h19v-18h-13v4h9v10h-11v-16z"/><path id="t" d="m65 2v4h7.5v14h4v-14h7.5v-4z"/><path id="e" d="m86 2v18h19v-4h-15v-3h15v-4h-15v-3h15v-4z"/><path id="m" d="m107 2v18h4v-14h3.5v14h4v-14h3.5v14h4v-18z"/><path id="p" d="m128 2v20h4v-16h11v10h-9v4h13v-18z"/></svg>